<svg width="57" height="57" viewBox="0 0 57 57" fill="none" xmlns="http://www.w3.org/2000/svg">
<path d="M46.9462 15.837C46.4802 15.0822 45.7149 14.5294 44.8184 14.304C43.9197 14.0786 42.9645 14.1972 42.1603 14.633C40.8239 15.356 39.2127 15.3552 37.8772 14.6308L36.4931 13.8803C35.2403 13.2009 34.4601 11.89 34.4601 10.4648C34.4601 8.64797 32.8961 7.125 30.9622 7.125H26.0376C24.1036 7.125 22.5396 8.64797 22.5396 10.4648C22.5396 11.8901 21.7596 13.2011 20.5069 13.881L19.1246 14.6314C17.7889 15.3563 16.1774 15.3569 14.8412 14.633C14.037 14.1972 13.0798 14.0786 12.1813 14.304C11.2846 14.5295 10.5196 15.0822 10.0534 15.837L7.59458 19.8381C7.13022 20.5929 7.00387 21.4914 7.24408 22.333C7.48426 23.1763 8.07139 23.8944 8.87559 24.3302C10.1913 25.0444 11.0109 26.4214 11.0113 27.9184L11.0117 29.0816C11.0121 30.5786 10.193 31.9556 8.87737 32.6698C8.07317 33.1073 7.48424 33.8238 7.24408 34.6653C7.0039 35.5086 7.1302 36.4071 7.59458 37.1619L10.057 41.163C10.5213 41.9178 11.2864 42.4705 12.1831 42.6961C13.0816 42.9215 14.037 42.803 14.843 42.3669C16.1793 41.644 17.7904 41.6449 19.126 42.3693L20.5051 43.1172C21.7588 43.7971 22.5396 45.1088 22.5396 46.5353C22.5396 48.3521 24.1034 49.875 26.0376 49.875H30.9607C32.8964 49.875 34.4586 48.3521 34.4586 46.5353C34.4596 45.1088 35.2412 43.7974 36.495 43.1174L37.8756 42.369C39.2113 41.6447 40.8225 41.644 42.1589 42.3669C42.9647 42.8027 43.9202 42.9215 44.817 42.6961C45.7154 42.4705 46.4804 41.9178 46.9447 41.163L49.4055 37.1619C49.8698 36.4071 49.9961 35.5086 49.756 34.6669C49.5157 33.8238 48.9286 33.1056 48.1244 32.6698C46.8086 31.9556 45.9895 30.5786 45.9895 29.0816V27.9184C45.9895 26.4214 46.8086 25.0444 48.1244 24.3302C48.9286 23.8927 49.5157 23.1763 49.756 22.3346C49.9961 21.4913 49.8698 20.5929 49.4055 19.8381L46.9462 15.837Z" stroke="#00B368" stroke-width="2" stroke-linecap="round"/>
<path d="M35.625 28.5C35.625 32.4351 32.4351 35.625 28.5 35.625C24.5649 35.625 21.375 32.4351 21.375 28.5C21.375 24.5649 24.5649 21.375 28.5 21.375C32.4351 21.375 35.625 24.5649 35.625 28.5Z" stroke="#00B368" stroke-width="2" stroke-linecap="round"/>
</svg>
