<svg width="42" height="42" viewBox="0 0 42 42" fill="none" xmlns="http://www.w3.org/2000/svg">
<path d="M34.3333 16.5556V5.81482C34.3333 5.47091 34.3333 5.29896 34.3238 5.15376C34.178 2.92818 32.4051 1.15538 30.1796 1.00951C30.0344 1 29.8624 1 29.5184 1H12.4815C12.1376 1 11.9656 1 11.8204 1.00951C9.59485 1.15538 7.82205 2.92818 7.67618 5.15376C7.66667 5.29896 7.66667 5.47091 7.66667 5.81482V16.5556M34.3333 16.5556C34.3333 23.9193 28.3638 29.8889 21 29.8889M34.3333 16.5556C38.0153 16.5556 41 13.5708 41 9.88889V7.29629C41 6.27356 40.1709 5.44444 39.1482 5.44444H34.3333M7.66667 16.5556C7.66667 23.9193 13.6362 29.8889 21 29.8889M7.66667 16.5556C3.98478 16.5556 1 13.5708 1 9.88889V7.29629C1 6.27356 1.82911 5.44444 2.85184 5.44444H7.66667M21 29.8889V34.3333M21 34.3333H17.6667C14.5984 34.3333 12.1111 36.8207 12.1111 39.8889C12.1111 40.5024 12.6086 41 13.2222 41H28.7778C29.3913 41 29.8889 40.5024 29.8889 39.8889C29.8889 36.8207 27.4016 34.3333 24.3333 34.3333H21Z" stroke="#00B368" stroke-width="2" stroke-linecap="round"/>
</svg>
